<svg xmlns="http://www.w3.org/2000/svg" width="16px" height="16px" viewBox="0 0 2048 2048">
	<circle fill-opacity="0" r="896" cx="1024" cy="1024" fill="#363636"></circle>
	<g transform="scale(0.77)"><path fill-opacity="1" transform="translate(144.41000000000003, 2108.96) rotate(180) scale(-1, 1)" fill="#8353f3" d="M616 1255q-113 0 -165 -120.5t-52 -389.5q0 -268 52 -388.5t165 -120.5q114 0 166 120.5t52 388.5q0 269 -52 389.5t-166 120.5zM92 745q0 383 132.5 579t391.5 196q260 0 392.5 -196t132.5 -579q0 -382 -132.5 -578t-392.5 -196q-259 0 -391.5 196t-132.5 578z"></path><path fill-opacity="1" transform="translate(1377.41, 2108.96) rotate(180) scale(-1, 1)" fill="#8353f3" d="M1081 43q-70 -36 -147 -54t-162 -18q-302 0 -461 199t-159 575q0 377 159 576t461 199q85 0 163 -18t146 -54v-328q-76 70 -147.5 102.5t-147.5 32.5q-162 0 -244.5 -128.5t-82.5 -381.5q0 -252 82.5 -380.5t244.5 -128.5q76 0 147.5 32.5t147.5 102.5v-328z"></path></g>
</svg>