<svg version="1.1" id="Layer_1" xmlns="http://www.w3.org/2000/svg" xmlns:xlink="http://www.w3.org/1999/xlink" x="0px" y="0px"
	 width="100%" viewBox="0 0 1024 1024" enable-background="new 0 0 1024 1024" xml:space="preserve">
<path fill="#ffffff" opacity="1.000000" stroke="#ffffff" stroke-width="10"
	d="
M432.776489,120.766281 
	C463.941650,92.148964 499.791992,72.739037 540.209412,61.765991 
	C564.256897,55.237282 588.690674,51.479401 613.724976,52.672600 
	C644.132751,54.121910 672.759399,61.727604 699.665283,76.219139 
	C754.923706,105.981384 792.106689,150.706970 810.414246,210.595871 
	C818.932251,238.460785 820.357361,267.211578 815.579895,296.108551 
	C815.002625,299.600464 815.251648,303.068115 815.640503,306.561615 
	C816.791626,316.903351 816.055298,327.229980 814.313416,337.402924 
	C813.292114,343.367798 810.902344,349.039673 803.713196,350.414703 
	C801.950623,350.751831 801.638733,352.376007 801.162476,353.801788 
	C789.593750,388.439636 765.283081,412.385468 735.651917,431.868958 
	C725.360046,438.636200 714.133545,443.944458 704.559631,451.834076 
	C698.598633,456.746338 693.428833,462.365234 689.260803,468.873169 
	C685.315063,475.034180 683.680603,481.915100 682.621338,489.090271 
	C676.805847,528.484619 703.442871,565.160339 735.434265,572.605713 
	C753.573242,576.827332 767.229309,570.493469 776.587097,552.727112 
	C784.252441,538.173950 787.415100,522.471252 788.854614,506.248169 
	C790.772095,484.638336 793.429199,463.087311 802.997437,443.254181 
	C816.505737,415.254272 835.594971,392.846069 865.545471,381.068665 
	C903.031555,366.328064 950.179932,384.904968 963.973083,423.447327 
	C970.545593,441.812775 969.645630,459.842773 958.450989,476.464905 
	C952.482300,485.327393 941.994812,489.208618 932.745544,486.596161 
	C925.436829,484.531799 921.096619,479.998627 921.956421,472.490143 
	C923.016724,463.231323 920.302734,458.075165 911.474426,454.191132 
	C902.742920,450.349792 903.050903,449.279053 901.578003,458.452911 
	C900.234680,466.820251 896.741943,473.975647 890.653870,479.844574 
	C887.574463,482.813019 887.724060,485.474670 890.969666,488.248322 
	C902.790955,498.350525 905.200378,511.766449 903.965149,526.300537 
	C903.633911,530.198669 901.637939,533.483215 898.583130,536.154236 
	C895.777527,538.607239 896.161621,544.165039 899.484253,545.841492 
	C906.083130,549.171021 909.437500,554.921936 912.291077,561.248474 
	C915.203918,567.706299 916.922363,574.458618 917.129089,581.519775 
	C917.274231,586.478821 916.063965,591.008240 912.242126,594.676025 
	C909.139465,597.653625 909.810791,606.275574 913.485779,608.395630 
	C920.086243,612.203369 921.993347,618.557617 922.853027,625.190613 
	C924.072937,634.603027 922.482727,643.842468 918.677307,652.544250 
	C916.637207,657.209290 913.932312,661.345581 907.690002,661.114380 
	C904.755432,661.005737 903.368103,665.454590 905.171631,668.445557 
	C913.714172,682.611755 911.506042,703.321106 900.204895,715.558472 
	C897.965759,717.983154 895.315308,719.863098 892.086792,720.036987 
	C888.809326,720.213562 887.337708,721.949951 886.319031,724.612427 
	C886.200134,724.923218 886.083984,725.244690 885.904907,725.521240 
	C880.874451,733.291321 881.045044,740.657227 886.219116,748.609192 
	C890.578674,755.309143 892.668945,763.183411 894.278503,771.058777 
	C894.746582,773.349060 895.061584,775.773621 897.024658,777.329834 
	C907.196167,785.393311 908.118225,796.507874 907.100586,808.151428 
	C906.322632,817.052734 903.905823,825.419128 898.612915,832.889282 
	C894.791260,838.283203 894.142639,843.308594 898.659058,849.615417 
	C909.491638,864.742126 897.906616,891.490417 879.578186,895.153442 
	C874.807617,896.106873 869.405273,902.452209 870.390381,907.036743 
	C873.861633,923.192383 864.439514,932.764465 853.219666,941.315186 
	C847.931641,945.345276 841.490356,946.778015 834.878784,947.079834 
	C831.523010,947.233032 828.307739,947.952087 825.059753,948.755493 
	C820.432007,949.900146 816.881287,951.556458 815.904480,957.062988 
	C815.182495,961.133179 811.615479,963.719116 808.335632,966.042786 
	C799.895081,972.022583 790.166077,974.254089 780.093811,974.918213 
	C775.099121,975.247559 770.473450,973.636841 767.722595,968.895691 
	C766.422852,966.655579 764.556274,966.283264 762.202332,966.512024 
	C758.890442,966.833862 755.550964,967.181030 752.235352,967.088013 
	C746.440308,966.925415 741.846313,967.428406 737.792786,973.178162 
	C733.613525,979.106140 725.834106,980.305298 718.674072,979.695496 
	C706.335999,978.644714 695.709290,974.127502 689.286804,962.657532 
	C687.638062,959.712830 684.811157,958.230042 682.051636,956.719299 
	C678.254333,954.640442 674.339661,952.776672 670.488464,950.795105 
	C665.451904,948.203735 660.981812,946.819885 655.322021,950.717224 
	C649.068359,955.023315 641.785339,953.172180 635.249695,950.047058 
	C627.448181,946.316589 621.124451,940.713562 615.905334,933.813965 
	C611.658203,928.199158 610.063293,921.882996 610.836609,914.997131 
	C611.243164,911.377075 610.160278,908.584229 607.704773,905.966187 
	C601.993225,899.876648 596.860352,893.321350 592.634705,886.089783 
	C591.678284,884.453064 590.631226,883.103821 588.302979,883.563721 
	C580.438660,885.116943 574.801880,881.341736 570.255432,875.522034 
	C568.021484,872.662537 566.221802,869.463928 563.878601,866.418701 
	C569.277588,877.403748 567.915100,888.034668 562.306519,898.298401 
	C558.925110,904.486389 553.835022,908.631165 547.108337,911.315796 
	C541.225769,913.663635 539.685364,919.854004 539.403076,925.331848 
	C538.525146,942.371155 528.814331,953.132446 515.179504,961.297485 
	C511.460297,963.524658 507.279572,964.924011 502.736389,963.570496 
	C500.477692,962.897644 498.523224,963.862488 496.533630,964.802246 
	C485.563873,969.983093 474.067169,973.083191 461.884399,973.353943 
	C459.999237,973.395874 458.257416,973.530273 457.016113,975.264893 
	C448.767303,986.791870 423.315613,988.487000 411.844910,976.202820 
	C403.898438,967.692749 394.363556,962.917603 384.615540,957.612244 
	C361.158508,944.845520 348.415344,924.941345 346.745697,898.140564 
	C346.715240,897.651794 346.578827,897.169495 346.290100,895.558899 
	C342.011688,901.055725 336.287262,904.145508 334.705139,911.070618 
	C331.159882,926.588745 316.261261,939.280701 302.276611,939.147949 
	C300.950745,939.135376 299.305054,939.403320 298.354156,938.748108 
	C292.450806,934.680664 287.752838,937.523438 283.021484,940.993713 
	C281.688110,941.971558 280.186218,942.768921 278.667938,943.435669 
	C274.811798,945.129456 272.884338,947.702026 271.584320,952.058533 
	C267.788483,964.778442 257.273071,969.823975 245.276978,972.104187 
	C236.355972,973.799866 227.597031,973.772461 221.101868,965.684021 
	C219.670486,963.901489 217.511932,964.032349 215.527954,964.245422 
	C210.224670,964.815125 204.925171,965.312988 199.581100,965.163147 
	C198.418686,965.130676 197.168457,965.150574 196.332962,966.130737 
	C187.660965,976.304688 176.667892,974.139160 166.443375,970.490173 
	C157.768692,967.394226 149.471558,962.686584 147.516907,951.795593 
	C146.931747,948.535156 143.091660,947.515076 139.852890,947.305237 
	C122.159630,946.158508 110.084618,933.166931 110.805984,915.511414 
	C110.979874,911.255493 110.419785,908.459717 106.532761,905.614502 
	C99.655792,900.580627 96.265800,893.020386 95.861572,884.443298 
	C95.501678,876.807007 94.149330,868.428162 99.699989,862.359497 
	C105.601158,855.907654 108.634491,848.457031 111.969498,840.671936 
	C118.054474,826.467407 131.595963,819.042786 147.072601,819.930847 
	C153.985306,820.327393 159.545395,822.983643 163.098480,829.322693 
	C165.700317,833.964539 168.371979,838.625183 171.550751,842.874939 
	C181.295181,855.902405 194.584305,860.606079 210.317749,857.694580 
	C238.368729,852.503601 270.782196,827.531067 275.986542,789.362732 
	C278.568848,770.424255 281.522003,751.514221 284.364594,732.599915 
	C284.509125,731.638184 284.573425,730.664368 284.733032,729.144104 
	C274.201050,737.198730 262.875885,738.257874 250.899948,735.321350 
	C245.492798,733.995605 241.200577,731.220093 238.470886,726.109924 
	C236.402344,722.237427 228.813080,721.533081 225.811783,724.824463 
	C222.268768,728.709839 217.707794,730.410645 212.774216,729.857483 
	C201.586182,728.603088 191.527206,724.381042 183.143539,716.674072 
	C178.928711,712.799500 176.106079,708.246765 176.873871,702.157349 
	C176.971146,701.385742 176.977295,700.105835 176.546249,699.840637 
	C171.878677,696.968933 169.197922,690.619385 161.965134,692.148621 
	C157.307770,693.133301 153.121445,690.738831 149.402863,688.158569 
	C139.078796,680.994568 132.669617,671.231140 130.345001,658.791321 
	C129.733002,655.516296 130.248108,652.451294 131.334152,649.488770 
	C133.694061,643.051392 130.372086,635.548889 123.985695,633.446533 
	C120.732460,632.375610 117.838104,630.667664 115.760696,627.997864 
	C107.190605,616.983765 103.223206,604.644348 105.567123,590.636047 
	C106.366463,585.858826 108.528618,581.933167 112.565628,578.971863 
	C116.050529,576.415588 115.870247,565.111755 112.247528,563.002869 
	C107.266876,560.103577 105.069412,555.538696 104.298248,550.335571 
	C102.518822,538.329590 104.018761,526.754822 110.146538,516.045898 
	C112.542130,511.859344 115.913521,508.859283 120.528778,507.128021 
	C126.067215,505.050446 127.829567,496.765686 123.733452,492.741425 
	C118.212387,487.317078 118.295296,480.514648 119.088593,473.606049 
	C120.741455,459.211853 127.531975,448.649292 141.521240,443.216187 
	C146.386063,441.326782 147.002441,438.864929 144.490128,435.259338 
	C134.489548,420.906830 136.438293,402.128357 149.166916,389.943176 
	C150.219009,388.936005 151.741226,388.305725 152.054047,386.620148 
	C151.540466,384.983032 149.893524,384.650940 148.735443,383.787811 
	C143.187744,379.653107 138.391571,374.871521 135.341919,368.553772 
	C133.941498,365.652527 132.458008,363.326324 128.496429,364.974945 
	C124.942207,366.454071 123.433228,368.887115 124.516121,372.441498 
	C127.320877,381.647705 124.771652,389.891113 120.192101,397.729492 
	C112.749748,410.467865 98.386246,413.519348 86.340294,404.937866 
	C76.386337,397.846802 70.768661,388.087006 69.936295,375.913849 
	C67.284729,337.135742 97.136017,291.916107 147.177521,288.436371 
	C191.885330,285.327423 222.797165,315.894409 234.105667,352.696808 
	C238.741837,367.784729 240.784821,383.213837 241.120956,398.938416 
	C241.480362,415.752045 240.478760,432.587341 242.139786,449.382477 
	C243.613190,464.280457 247.033066,478.607513 254.479370,491.703888 
	C267.606140,514.790955 299.813873,519.632507 322.028320,502.446442 
	C340.443024,488.200073 348.509155,468.365112 353.712463,446.768585 
	C355.476288,439.447784 355.969757,431.997955 356.157471,424.472443 
	C356.275391,419.745270 355.071228,417.127594 350.020996,416.130249 
	C344.662872,415.072083 339.417755,413.254944 334.265137,411.379578 
	C321.639709,406.784332 312.872101,398.208527 308.269287,385.472198 
	C301.958130,368.008636 297.864777,350.013855 295.810333,331.595001 
	C295.194824,326.076843 293.535767,321.858917 288.766602,318.651886 
	C281.210846,313.571014 277.105652,306.456085 277.728241,297.044952 
	C277.815857,295.720673 277.669861,294.380768 277.628845,293.048187 
	C277.184509,278.619629 278.784515,275.972412 292.443237,271.761475 
	C305.980530,267.587952 319.850677,264.748352 334.011566,263.735779 
	C338.993256,263.379517 342.641022,262.599457 344.389008,256.743774 
	C346.259247,250.478546 350.608856,245.039856 356.203186,241.646408 
	C361.432312,238.474548 363.431763,234.436951 364.711823,228.691589 
	C368.025146,213.820129 374.342468,199.996155 381.439026,186.556015 
	C394.573822,161.680084 412.163239,140.264893 432.776489,120.766281 
M528.609436,755.343506 
	C528.156555,754.316772 527.703735,753.289978 527.010010,751.557068 
	C524.980347,747.311462 522.650269,743.336243 518.217468,741.089172 
	C513.387512,738.640686 511.594391,739.648682 511.247223,745.091370 
	C510.514069,756.584961 518.512634,769.922119 528.966248,774.607422 
	C529.720154,774.945312 530.507751,775.316101 531.311401,775.415649 
	C534.452148,775.804810 536.441528,774.641846 535.383789,771.234802 
	C533.717163,765.866028 532.280823,760.357483 528.609436,755.343506 
M222.222961,863.889221 
	C221.583511,864.082642 220.944458,864.277405 220.304565,864.469299 
	C198.503220,871.006348 173.289322,866.459595 159.698990,841.759888 
	C158.656448,839.865112 157.429413,838.070496 156.261673,836.246277 
	C151.001740,828.029175 148.339722,827.013306 138.784592,828.929565 
	C130.378952,830.615112 124.163185,835.236328 120.083984,842.622314 
	C116.665009,848.812805 114.665932,855.541992 114.350304,862.627930 
	C113.711670,876.965393 117.089035,890.723755 120.724884,904.427734 
	C121.175240,906.125183 122.118210,907.359497 123.713074,908.210388 
	C131.888382,912.571655 136.215210,919.918640 139.138550,928.321472 
	C140.451736,932.095947 141.620453,935.924622 143.050262,939.653748 
	C145.042419,944.849426 151.081818,947.024414 155.696045,944.351685 
	C166.641922,938.011414 188.271225,942.253540 194.586594,953.082947 
	C197.974243,958.892029 201.891434,959.296814 207.218506,958.537598 
	C209.030579,958.279358 210.880127,957.850708 212.674545,957.989807 
	C216.686279,958.300903 218.343674,956.561096 219.618927,952.727295 
	C225.621780,934.681458 249.561737,924.369080 264.401459,934.564819 
	C271.318909,939.317505 275.564026,938.255554 281.127228,934.412048 
	C282.354401,933.564209 283.745697,932.955078 285.055359,932.225159 
	C287.007874,931.136841 287.846100,929.743042 287.264099,927.309387 
	C285.730499,920.896729 287.889404,915.099976 290.965393,909.637085 
	C299.183533,895.041748 315.990784,890.463806 329.504944,899.107544 
	C330.781372,899.924011 331.748962,900.399475 333.030823,899.302246 
	C336.801117,896.075073 340.599487,892.880554 344.681427,889.423767 
	C339.346283,882.596985 338.667084,875.513550 342.214996,868.064331 
	C342.940430,866.541260 342.432098,865.233032 341.783508,863.798828 
	C335.509674,849.925049 344.199127,832.510010 358.838470,829.640869 
	C361.583557,829.102783 363.219238,828.005920 363.718231,824.944458 
	C367.313354,802.887329 372.285889,781.168457 380.642639,760.362122 
	C389.886200,737.347717 403.221680,717.409485 423.729095,702.735474 
	C435.205872,694.523438 447.378296,689.072815 461.860687,690.982544 
	C473.467743,692.513123 484.277893,696.426270 493.569489,703.560242 
	C510.149689,716.290222 523.501892,732.004517 533.601685,750.253479 
	C540.119568,762.030396 544.820618,774.756226 552.866394,785.771912 
	C561.108948,797.056885 567.340942,809.338928 568.348755,823.660095 
	C568.513062,825.994629 570.012390,826.543396 572.023743,826.902039 
	C577.338867,827.849915 581.462585,830.704285 584.832581,834.937683 
	C589.128418,840.333984 592.267090,846.362976 595.242737,852.519226 
	C598.669189,859.608093 599.635132,866.805359 596.305847,874.195801 
	C595.297913,876.433289 596.516174,878.018188 597.604858,879.696838 
	C602.866943,887.810181 608.434143,895.693176 614.486023,903.252502 
	C616.468201,905.728394 617.981628,906.502869 621.081726,905.158508 
	C626.818665,902.670715 632.856262,902.900879 638.657043,905.095276 
	C652.816406,910.451843 661.288879,920.498169 663.061340,935.728271 
	C663.348633,938.197205 663.559570,940.258667 666.335327,941.201050 
	C672.997192,943.462646 679.075928,946.980591 685.127991,950.474487 
	C687.909790,952.080505 689.491028,951.441406 691.454895,949.182373 
	C706.451477,931.932251 727.000244,937.716003 736.054016,951.212463 
	C741.770325,959.733948 747.733826,960.686707 755.978027,959.918701 
	C757.135559,959.810913 758.321838,959.771729 759.474304,959.893982 
	C763.661804,960.338135 765.922974,958.641418 767.855469,954.679871 
	C775.398560,939.216980 793.169556,931.913025 806.636536,940.084351 
	C813.601929,944.310608 819.030273,944.317749 825.626587,941.614990 
	C826.085388,941.427185 826.583801,941.264221 827.072876,941.233215 
	C831.407288,940.958984 832.579529,938.653320 832.983459,934.387268 
	C833.901611,924.692078 837.931702,916.086670 844.723938,909.005615 
	C848.209351,905.372009 852.351624,901.345581 857.309753,901.437256 
	C866.065491,901.599243 868.265015,895.280823 871.291138,889.590088 
	C872.756226,886.834900 873.598022,883.692261 874.373474,880.636658 
	C876.759705,871.234802 880.216675,862.242554 884.220093,853.429321 
	C888.053345,844.990479 890.258179,836.262329 889.792297,826.823242 
	C889.292297,816.691467 888.787720,806.544800 889.588806,796.371033 
	C889.991943,791.251282 889.711792,786.073608 889.246155,780.905151 
	C887.574219,762.344116 878.357300,747.130249 867.751587,732.670410 
	C847.143372,704.573059 819.357361,691.977966 784.528992,695.156555 
	C764.963745,696.942139 736.767395,712.084961 731.958374,741.289246 
	C729.701721,754.993652 730.576416,768.219360 738.105103,780.344177 
	C740.320801,783.912537 742.920776,787.672363 747.898193,786.681030 
	C752.800171,785.704773 755.134827,781.774170 756.727661,777.349243 
	C757.807312,774.349976 757.367859,771.452759 756.399231,768.564392 
	C755.381775,765.530212 754.955505,762.541687 755.466248,759.264343 
	C757.402771,746.836731 766.825623,737.005676 779.149231,734.675110 
	C790.850891,732.462158 801.221680,735.583252 810.828979,742.134949 
	C826.114685,752.558899 832.071716,767.997925 834.278381,785.506653 
	C838.536804,819.295715 822.207886,850.631409 792.171143,866.749084 
	C770.385803,878.438965 748.400818,879.343750 725.984497,868.839478 
	C712.834351,862.677307 701.576721,853.798279 691.367737,843.694336 
	C665.249023,817.844055 651.669800,785.182190 642.980957,750.396362 
	C637.750000,729.454224 634.704224,707.978638 631.358459,686.608276 
	C627.601562,662.611877 623.178528,638.717896 618.889282,614.807312 
	C615.272766,594.646545 611.432190,574.529419 602.974365,555.654968 
	C602.421448,554.421021 601.341431,552.985596 602.669312,551.440063 
	C604.354980,551.178955 604.946289,552.450806 605.603027,553.592346 
	C609.603516,560.545471 612.664307,567.919983 615.389160,575.445374 
	C622.658142,595.520874 627.734009,616.133362 631.881165,637.089172 
	C637.047546,663.194946 642.191406,689.293762 646.354797,715.576965 
	C647.472534,722.632690 649.749573,727.930359 656.297729,732.586548 
	C666.765930,740.029968 674.613525,750.900024 671.044373,764.585449 
	C668.926880,772.704895 671.180176,776.398804 677.505920,779.644043 
	C677.945679,779.869629 678.352661,780.185913 678.720947,780.519470 
	C681.805481,783.312256 684.711426,784.329163 687.938232,780.481140 
	C689.294983,778.863098 691.537170,778.162048 693.710754,777.703491 
	C703.449951,775.649109 711.615662,779.584717 719.608398,784.354492 
	C726.738892,788.609863 729.796021,794.899841 728.740234,803.823486 
	C733.653870,800.855164 737.821167,798.337708 742.697021,795.392212 
	C737.770874,792.847046 733.667908,790.600830 731.165649,786.471741 
	C716.457764,762.200562 717.374451,735.950317 734.298218,713.351929 
	C752.901917,688.510437 779.544189,681.850464 809.261353,686.639465 
	C835.075439,690.799500 855.767944,704.037109 872.192139,724.208923 
	C873.589355,725.924927 874.595276,728.146301 877.003967,729.174866 
	C880.598816,723.972107 882.187683,718.826721 881.257812,712.555420 
	C878.848328,696.305481 883.635742,681.777893 893.977844,669.345520 
	C899.171204,663.102478 900.493164,658.607910 898.112488,650.956665 
	C893.891968,637.392639 893.936157,623.956482 902.207092,611.694885 
	C905.835205,606.316162 905.090637,597.673462 900.147278,593.396301 
	C888.912903,583.675903 885.411316,570.853088 885.916809,556.578735 
	C885.999512,554.242676 887.218201,552.136230 888.511169,550.156128 
	C892.041565,544.749268 890.863464,537.660461 885.784302,533.539734 
	C872.855103,523.050598 870.145447,502.088837 880.077087,489.117310 
	C882.664062,485.738403 882.790894,482.935516 878.871399,480.366730 
	C874.927551,477.781921 872.368591,473.997681 871.910034,469.290131 
	C870.677429,456.637054 875.212341,446.446869 885.682922,439.104431 
	C893.605652,433.548706 902.493652,430.784393 912.047302,429.164978 
	C927.264832,426.585388 936.897949,434.480408 941.806580,447.483063 
	C944.466492,454.528748 940.680969,459.661102 933.231018,460.450775 
	C931.844299,460.597809 929.684692,459.460907 929.277832,462.680145 
	C938.270691,462.948669 947.322449,463.255432 952.812744,472.603241 
	C960.499329,460.229034 961.584351,447.472504 959.194336,434.681732 
	C954.512268,409.623749 934.605530,391.124542 908.127197,386.200867 
	C887.907471,382.440948 869.868469,388.726349 852.991638,399.056213 
	C839.371277,407.392883 827.962219,418.111969 822.543091,433.637665 
	C813.295532,460.131561 811.855042,487.431702 815.763062,515.018433 
	C818.818665,536.588135 824.681335,557.725647 826.566956,579.468872 
	C828.328125,599.777405 828.507019,620.106262 821.722290,639.774292 
	C818.206360,649.966370 813.432800,659.439087 804.866211,666.458374 
	C789.657593,678.919861 772.129700,679.453369 754.152649,675.475891 
	C733.790283,670.970642 717.899475,658.926086 704.877625,643.178955 
	C679.816345,612.872620 667.159546,577.320862 661.947937,538.782837 
	C661.778931,537.532715 661.483704,536.019958 663.577148,535.606812 
	C665.161255,536.480652 665.358215,538.263306 665.779846,539.791077 
	C669.146545,551.990112 672.823608,564.110657 677.409363,575.889526 
	C685.338013,596.255310 694.187744,616.195190 708.314575,633.251099 
	C724.802856,653.158203 745.619934,662.023376 771.259888,656.538452 
	C785.314941,653.531799 796.664551,645.190125 806.537903,634.884338 
	C813.892639,627.207397 817.428772,618.179871 817.853271,607.445679 
	C818.796021,583.608704 815.567322,560.277649 810.603760,537.088684 
	C805.814758,514.715149 805.336670,492.239349 808.516907,469.587982 
	C809.805237,460.411713 812.429260,451.565979 814.225525,442.503632 
	C808.743835,451.004883 805.595947,460.428162 803.280579,470.112396 
	C799.588989,485.552551 799.451599,501.473663 797.315674,517.129883 
	C795.325806,531.715210 792.388672,545.996643 785.263367,559.111389 
	C777.706116,573.021301 767.066345,582.494934 750.460327,583.131653 
	C724.970215,584.109009 705.087830,573.312988 689.576965,553.625244 
	C679.967468,541.427979 675.465698,526.943298 671.264709,512.343689 
	C666.278870,495.016510 668.539001,478.462494 676.471436,462.432037 
	C682.942566,449.354523 694.602539,442.162140 706.838379,435.990540 
	C729.649536,424.484955 750.699219,410.939331 767.520691,391.220917 
	C777.770203,379.206299 785.624390,366.172180 790.049744,351.040497 
	C791.013306,347.745636 791.489624,344.333710 787.558044,343.052551 
	C781.597351,341.110107 780.247070,336.982300 780.644836,331.445923 
	C780.835266,328.794403 780.647156,326.115723 780.631226,323.449341 
	C780.593567,317.153320 779.858643,316.464844 773.366089,316.200806 
	C754.812988,315.446320 736.457214,317.890442 718.060791,319.625946 
	C716.149719,319.806213 713.914307,319.799286 712.574280,321.608856 
	C705.539673,331.108582 698.033386,340.340302 695.841675,352.493622 
	C694.335571,360.845428 692.608154,369.157135 691.007263,377.492096 
	C685.882568,404.172882 670.851746,421.486877 643.844116,427.601898 
	C617.001282,433.679657 590.099487,434.329254 563.070557,428.903168 
	C538.871643,424.045197 521.384155,411.307037 513.218506,387.232208 
	C510.170685,378.246277 506.735809,369.390198 503.405518,360.501862 
	C497.063446,343.575226 484.569519,335.608032 467.065582,337.256348 
	C456.229279,338.276764 451.562897,342.302216 449.609833,352.897278 
	C448.006104,361.597229 445.845154,370.131470 443.174530,378.555389 
	C435.666779,402.237091 420.341400,416.670013 395.102661,419.729767 
	C387.436951,420.659119 379.800629,420.387238 372.150421,420.167877 
	C368.917572,420.075195 367.399902,420.932556 367.010406,424.478516 
	C366.103455,432.735626 365.297882,441.015320 363.351227,449.142761 
	C358.136230,470.915955 349.489716,490.997650 333.001923,506.627716 
	C302.546753,535.498596 256.929108,526.056458 241.365646,487.454010 
	C233.980789,469.137238 230.170364,449.794556 230.961060,429.838348 
	C231.541809,415.180908 231.966400,400.524109 230.930252,385.880554 
	C229.408478,364.373871 223.799652,344.114288 210.493256,326.785858 
	C194.491272,305.947083 173.362152,294.710419 146.755051,297.521301 
	C118.231956,300.534637 96.349411,314.247345 85.050819,341.649475 
	C78.725563,356.989868 76.604736,372.845154 83.337570,388.812012 
	C87.231651,398.046783 95.936172,403.193542 104.760422,401.629700 
	C111.292709,400.472015 117.558891,391.549225 117.977325,382.779053 
	C118.074120,380.750214 118.147598,378.580688 115.992828,377.530396 
	C113.970154,376.544434 112.001579,377.355621 110.430771,378.706329 
	C105.638947,382.826630 103.026352,387.996399 103.045860,394.435822 
	C103.051529,396.304047 104.009140,398.376770 102.287010,400.125305 
	C99.838539,399.629822 99.857742,397.631195 99.630592,395.897125 
	C99.031029,391.319946 99.645142,386.856110 101.823891,382.798096 
	C104.537788,377.743408 107.317696,372.897369 108.835716,367.152161 
	C110.819641,359.643677 116.220665,354.093018 123.344772,350.818085 
	C131.267105,347.176270 139.764755,345.776154 148.468140,345.907440 
	C149.899460,345.929016 151.430847,346.559723 152.725281,347.260956 
	C162.487778,352.549835 168.260742,360.618164 169.299286,371.790222 
	C169.593567,374.956116 169.153915,378.032898 167.767838,381.039215 
	C166.270126,384.287537 163.479065,385.373535 160.283875,386.208374 
	C167.422318,387.332092 170.713928,391.876465 172.343002,398.220825 
	C175.806808,411.710419 168.787735,428.751495 156.750031,435.846771 
	C152.104950,438.584686 150.149567,444.488770 152.569794,448.468567 
	C162.620331,464.995636 154.264053,488.982635 136.042068,495.912018 
	C131.657715,497.579315 128.991760,506.567108 131.649658,510.720245 
	C141.427704,525.999084 137.487961,550.500366 123.354088,562.000488 
	C122.126534,562.999329 121.023476,563.974304 121.117363,565.645447 
	C121.447075,571.513733 119.311790,578.119202 126.790131,581.689880 
	C129.278061,582.877747 130.526047,585.870483 131.857819,588.382080 
	C135.159988,594.609375 137.386353,601.207703 138.660629,608.141602 
	C140.005783,615.461365 139.063751,622.372375 135.258224,628.844910 
	C133.042953,632.612671 137.138824,642.526855 141.363205,643.740845 
	C158.396332,648.635681 171.280396,665.755005 171.291138,683.506836 
	C171.294632,689.293396 179.835602,695.888428 185.538834,694.508423 
	C198.570389,691.355164 219.961472,700.735779 226.712921,712.564392 
	C228.754974,716.142090 237.337692,717.634888 240.578873,715.063354 
	C252.224106,705.823730 264.986176,705.967590 278.297333,710.611633 
	C281.318542,711.665710 282.765411,714.903015 286.218658,716.275024 
	C287.800842,712.150513 289.564697,708.387390 290.706787,704.444214 
	C300.604767,670.270630 318.019928,640.269409 340.568604,612.953918 
	C357.764435,592.122925 374.533569,570.932373 384.435364,545.328430 
	C384.838196,544.286743 385.259705,543.011047 387.265015,543.797241 
	C387.540253,545.796204 387.210205,547.843262 386.624756,549.950623 
	C383.484863,561.252563 378.859100,571.927185 373.038177,582.079468 
	C364.551788,596.880615 353.831787,610.128540 343.290253,623.426758 
	C322.827148,649.241028 307.439758,677.442322 299.630096,709.638123 
	C293.184021,736.212402 289.421722,763.242493 285.387543,790.226074 
	C279.784729,827.701843 257.934052,851.188171 222.222961,863.889221 
M596.023499,62.596035 
	C586.597351,63.641659 577.107178,64.292671 567.757141,65.807945 
	C541.207275,70.110626 516.405334,79.439407 492.752075,92.186935 
	C441.188385,119.976357 403.355072,160.347458 380.069153,214.187698 
	C377.714569,219.631760 375.678680,225.216049 374.845367,232.288895 
	C390.675537,226.087357 405.424744,226.373779 419.372345,235.385559 
	C432.527252,243.885162 442.037445,255.270248 447.223114,270.137726 
	C443.743622,267.159393 441.003235,263.549866 437.974335,260.201294 
	C430.668396,252.124344 422.503418,245.233124 412.632080,240.244003 
	C390.362030,228.988358 365.090546,242.806458 355.612823,256.834747 
	C354.659393,258.245941 353.165405,259.667511 354.049622,261.933899 
	C354.657410,262.015411 355.296417,262.178223 355.934692,262.175568 
	C383.134644,262.061920 409.508820,266.272339 435.315674,275.270447 
	C448.366913,279.821014 457.101868,286.324432 456.870575,301.173004 
	C456.808685,305.144653 459.021027,306.041656 462.700439,305.889221 
	C470.837585,305.552063 478.968750,304.927063 487.146301,305.673950 
	C494.888824,306.381073 494.877716,306.132416 496.898132,298.567749 
	C498.868469,291.190582 502.069000,284.384003 510.086578,282.322083 
	C520.584351,279.622345 530.601624,275.508209 541.062988,272.718658 
	C567.998901,265.536133 594.931335,259.867615 623.242859,261.548004 
	C651.424255,263.220673 678.571533,269.066528 705.391541,277.217712 
	C708.632141,278.202606 711.567261,279.947784 713.637451,282.638733 
	C715.717224,285.342102 718.297607,285.941406 721.496521,285.922791 
	C735.492371,285.841187 749.508972,285.470184 763.479980,286.077484 
	C776.547607,286.645569 789.895142,285.808441 802.410645,291.007660 
	C806.184570,292.575378 806.576721,290.198730 806.889282,287.389557 
	C810.245544,257.218445 806.252808,227.952667 795.998840,199.485001 
	C779.978943,155.009460 750.830994,121.090141 711.686523,95.362846 
	C676.890381,72.493439 638.809143,60.840454 596.023499,62.596035 
M357.303833,895.471191 
	C357.175659,900.659302 357.794952,905.768005 359.045410,910.793884 
	C364.658905,933.355652 379.752655,947.367981 400.250793,956.556946 
	C402.422577,957.530457 403.823151,957.498474 405.288849,955.397705 
	C408.306427,951.072693 412.804413,948.914612 417.798218,947.779358 
	C436.828278,943.453369 449.506866,949.419006 459.262299,967.386414 
	C470.342957,966.357117 481.067322,963.617859 491.467285,959.394226 
	C494.341705,958.226990 495.350372,956.450806 494.650330,953.599731 
	C493.733643,949.866089 494.390137,946.278137 495.772583,942.851013 
	C500.031616,932.292297 507.437500,924.291626 516.812378,918.120728 
	C520.913879,915.420959 525.564209,913.909119 530.602051,915.399475 
	C533.322144,916.204163 534.536438,914.733032 535.673706,912.640259 
	C538.602844,907.250427 539.339905,901.317749 540.364075,895.405334 
	C542.777710,881.471130 546.266052,867.589294 546.651489,853.486084 
	C547.356689,827.676819 538.372620,805.001770 520.309631,786.527283 
	C494.394684,760.022095 463.697906,746.618408 425.981506,754.623840 
	C412.104675,757.569275 401.016571,766.125244 389.246338,773.296692 
	C386.349548,775.061707 384.635590,777.589050 383.608032,780.654358 
	C381.967896,785.547180 380.390778,790.463074 378.895966,795.402161 
	C376.082397,804.698608 373.523529,813.778870 380.689453,822.718018 
	C383.137268,825.771606 384.363220,827.015503 388.052917,824.964294 
	C399.784149,818.442627 412.197174,814.026489 425.684509,812.418884 
	C465.116516,807.718933 492.936249,847.072815 481.257568,882.525940 
	C477.053314,895.288879 464.177521,903.730835 451.196594,903.140564 
	C429.467621,902.152466 412.545685,881.560913 415.923615,860.218323 
	C418.119904,846.341431 429.502411,836.172241 442.220337,836.884521 
	C447.453400,837.177612 452.269501,839.019409 456.884827,841.463379 
	C465.197327,845.865356 470.977203,852.861572 476.935669,861.578674 
	C473.967560,844.666260 465.495758,833.411804 451.496704,826.456360 
	C435.897675,818.705933 420.310150,819.976685 404.799835,827.143555 
	C375.955994,840.471497 357.087921,860.751953 357.303833,895.471191 
M626.794983,293.863190 
	C624.638184,293.683289 622.483948,293.387787 620.324280,293.341492 
	C599.801392,292.901520 579.417786,294.609985 559.092163,297.295532 
	C555.837708,297.725555 554.740112,299.599670 554.085388,302.524414 
	C550.754883,317.401917 549.059204,332.419556 550.368103,347.643524 
	C552.176147,368.673157 561.405884,385.869690 578.161743,398.715485 
	C594.011414,410.866455 616.751770,407.493927 628.882141,391.612579 
	C637.495789,380.335449 640.895142,366.959351 644.813904,353.669800 
	C650.102722,335.734558 648.658997,317.792328 646.373657,299.736664 
	C646.018250,296.928802 644.774658,295.487457 641.661255,295.017029 
	C637.021362,294.316040 632.369263,294.327118 626.794983,293.863190 
M776.501465,818.311951 
	C761.288818,822.361877 748.632141,819.001038 739.582520,805.429077 
	C736.712280,806.009827 734.823608,808.027161 732.620422,809.438843 
	C724.533752,814.620483 716.127869,818.391602 706.287415,815.242676 
	C693.939331,811.291138 682.940979,805.840820 681.193726,790.881104 
	C681.108459,790.150574 680.526184,789.315613 679.929626,788.832764 
	C675.015442,784.854004 670.059021,780.926636 665.074097,777.036621 
	C664.127075,776.297546 662.994263,775.949158 661.687439,777.141235 
	C662.497986,782.181946 665.341858,786.547729 667.331726,791.229248 
	C677.953674,816.219604 694.370422,836.560425 716.577698,852.177307 
	C723.688171,857.177673 731.276428,861.434875 739.730835,863.652039 
	C763.994812,870.015320 784.620972,862.483765 802.841248,846.507568 
	C805.633728,844.059021 808.600586,841.616089 810.486755,837.974976 
	C799.842407,832.427307 799.826599,823.449402 802.418945,813.467773 
	C795.110779,812.453003 788.320740,810.069397 782.158508,815.661926 
	C780.862610,816.838074 778.909729,817.290222 776.501465,818.311951 
M354.876617,395.584778 
	C359.546814,398.130615 364.514130,400.161652 369.774841,400.516327 
	C380.415894,401.233704 391.091583,401.224091 401.552765,398.602020 
	C408.352722,396.897675 413.924408,393.344574 417.865234,387.524994 
	C415.483978,388.522278 413.937958,391.017456 411.025696,390.988464 
	C411.717865,389.693848 412.815094,388.931763 413.599182,387.925690 
	C416.731262,383.907074 421.652924,381.449860 423.400482,376.200836 
	C429.744843,357.145050 431.963898,337.590332 430.561829,317.612732 
	C429.977631,309.289062 426.431396,303.674316 417.622925,300.966919 
	C400.471649,295.695282 383.054169,292.556793 365.197693,291.527771 
	C363.403259,291.424377 361.974213,291.762665 361.323547,293.805359 
	C356.457581,309.081757 351.746246,324.475983 353.411499,340.736877 
	C355.036560,356.605286 360.187866,371.295319 371.322266,383.238251 
	C376.394379,388.678650 382.566101,392.154968 390.367859,391.276276 
	C404.070892,389.732819 416.972260,371.574127 414.853516,356.691498 
	C413.043243,362.420837 411.261932,367.982727 407.628418,372.673157 
	C402.939056,378.726715 396.326477,379.705017 390.069550,375.319550 
	C386.857513,373.068268 384.550171,370.030182 382.710724,366.624268 
	C375.977905,354.157745 375.880157,340.743439 377.371307,327.191895 
	C378.201935,319.642792 380.470551,312.509033 385.704041,306.699585 
	C391.567780,300.190430 399.187317,300.173767 405.241577,306.497345 
	C408.070953,309.452576 409.718231,313.076599 411.387054,316.714325 
	C415.691986,326.098236 416.168335,336.300873 418.127380,346.226196 
	C421.104462,361.309326 417.604736,374.272919 408.295013,385.959717 
	C398.774689,397.910889 381.821777,399.085480 370.784363,388.465698 
	C356.798889,375.009399 350.182709,358.115234 348.853302,339.008789 
	C347.815674,324.095886 350.818542,309.870697 356.655518,296.177246 
	C357.331787,294.590790 358.705109,292.487915 355.902069,291.681671 
	C353.679810,291.042450 351.120209,290.827881 349.931488,293.675751 
	C349.492065,294.728424 349.376282,295.928284 349.193207,297.073883 
	C348.142853,303.646698 347.425446,310.243286 346.972168,316.897827 
	C345.171448,343.335571 346.454102,369.440948 354.876617,395.584778 
M524.281433,319.010101 
	C523.154480,339.661377 525.030273,359.946259 532.151001,379.498932 
	C537.323242,393.701416 546.943298,403.359070 561.782898,407.436920 
	C573.070190,410.538696 584.617065,411.939850 596.236633,412.888947 
	C613.327393,414.284882 628.466309,407.135468 643.943787,401.710999 
	C654.996521,397.837341 662.120483,389.775848 666.125549,378.823761 
	C672.875244,360.366364 674.720581,341.257996 673.433411,321.816772 
	C673.046692,315.974823 670.823364,310.456390 667.129944,305.739563 
	C662.831299,300.249756 656.862427,297.965454 650.169617,296.264893 
	C650.026672,297.639557 649.903809,298.123413 649.942383,298.594055 
	C650.023865,299.588745 650.149780,300.583771 650.327026,301.566071 
	C652.911743,315.888123 654.302063,330.221649 651.267090,344.679718 
	C648.076355,359.880219 644.134766,374.853241 636.329834,388.423004 
	C626.585632,405.364349 608.586548,413.523956 590.572205,408.991211 
	C576.960022,405.566162 567.214355,396.508972 559.491943,385.250061 
	C542.780396,360.885406 542.032593,334.306976 549.055115,306.732056 
	C549.642639,304.424927 551.047119,302.170044 550.041016,299.654541 
	C535.862732,299.815887 526.841919,306.369324 524.281433,319.010101 
M501.897919,723.731750 
	C491.818298,711.483887 479.159698,703.434265 463.634186,699.839844 
	C453.876709,697.580872 449.779266,699.002930 443.924500,707.051025 
	C436.949005,716.639771 433.025757,727.596130 429.535400,738.744080 
	C429.072754,740.221741 428.486267,741.959290 429.917816,743.873779 
	C457.777008,738.288574 482.588715,747.160645 506.665802,762.285828 
	C502.128845,752.662903 503.590302,743.632446 504.368011,734.735352 
	C504.701202,730.923401 504.788544,727.453735 501.897919,723.731750 
M781.360168,742.574280 
	C780.881165,742.716125 780.400879,742.853821 779.923340,743.000366 
	C766.092957,747.244446 761.180481,755.500488 764.057007,769.633057 
	C764.222229,770.444580 764.464844,771.327515 764.307190,772.103149 
	C763.420044,776.466797 765.789734,777.632996 769.554749,778.626038 
	C781.588074,781.799988 787.371521,788.812866 788.017822,800.907898 
	C788.230957,804.896912 790.539246,805.392090 793.525269,805.807556 
	C802.323425,807.031921 810.728516,806.998474 819.166260,802.913025 
	C826.127441,799.542664 827.241211,798.763550 824.911438,790.958008 
	C822.925537,790.644104 821.483887,791.964050 819.912231,792.773193 
	C812.062927,796.814575 804.177490,800.772339 795.710022,803.385498 
	C793.587463,804.040466 791.277771,805.256409 789.306519,802.699646 
	C790.558289,799.743896 793.431213,798.954102 795.881165,797.728638 
	C802.579468,794.378052 809.392517,791.254761 816.063599,787.852112 
	C826.061462,782.752686 826.026306,782.683838 822.739502,771.810852 
	C816.947693,752.651123 800.508484,740.723389 781.360168,742.574280 
M311.330994,312.417358 
	C312.222809,331.502289 316.842865,349.923492 321.839569,368.203918 
	C325.169434,380.386230 333.179321,389.160767 344.828003,394.337616 
	C346.351807,395.014862 347.958954,396.431854 349.671417,395.266724 
	C339.225281,361.274963 342.024750,326.898132 345.227509,292.078094 
	C336.063934,292.498505 326.993866,293.188873 318.276245,296.230103 
	C313.506683,297.894043 310.924133,301.195160 311.299927,306.476471 
	C311.417877,308.134003 311.324982,309.806580 311.330994,312.417358 
M425.431274,858.985352 
	C421.544678,873.629517 433.103699,890.625244 447.722321,892.481201 
	C456.192200,893.556519 463.670837,891.674255 468.632812,883.978271 
	C472.982330,877.232178 473.660400,869.989990 469.290039,863.276123 
	C464.700623,856.225830 458.333740,850.687073 450.499237,847.296082 
	C438.832031,842.246216 429.960388,846.247314 425.431274,858.985352 
M388.448303,367.006775 
	C395.765594,375.847107 401.738342,375.105804 406.827728,364.890320 
	C409.941406,358.640472 410.949432,351.905182 411.485870,345.136444 
	C412.489624,332.471039 409.628021,320.644592 401.990936,310.354980 
	C398.004852,304.984497 392.783569,305.257751 388.776825,310.615936 
	C387.396545,312.461731 386.030701,314.494385 385.349915,316.659210 
	C380.039246,333.546753 379.759705,350.216858 388.448303,367.006775 
M521.034363,291.410156 
	C525.439636,289.388397 530.048767,287.976959 534.712158,286.683319 
	C562.372192,279.010223 590.532898,276.521484 619.218201,276.557220 
	C643.576477,276.587555 666.855164,281.087036 689.796265,288.422211 
	C701.143677,292.050446 701.011230,292.212128 699.661377,304.202332 
	C699.105896,309.136871 698.967224,314.118347 698.609497,319.522766 
	C701.418762,318.195068 701.627686,316.237183 702.241211,314.565125 
	C704.547241,308.280579 703.729309,301.731293 703.781067,295.261322 
	C703.816895,290.780823 701.815796,287.481018 697.544678,286.003906 
	C691.730957,283.993408 685.905273,281.921844 679.942566,280.454163 
	C652.941467,273.808044 625.610352,270.839508 597.757812,272.915863 
	C576.461243,274.503510 555.368591,277.036743 534.857300,283.238861 
	C527.524170,285.456207 520.184326,287.732178 513.584412,291.744934 
	C508.275787,294.972656 506.097839,299.539642 507.243622,305.301727 
	C509.737640,298.461243 514.211426,294.234924 521.034363,291.410156 
M650.744812,923.827026 
	C645.628662,915.437012 638.399231,910.337036 628.362305,910.329346 
	C619.450745,910.322571 615.165283,917.242310 618.765686,925.309021 
	C622.318909,933.270081 628.678345,938.528442 635.983704,942.754089 
	C639.155701,944.588867 642.651184,945.821106 646.397400,945.870483 
	C653.003845,945.957642 656.517639,941.623779 655.167358,935.133362 
	C654.383057,931.363342 653.068359,927.787292 650.744812,923.827026 
M264.926575,951.250732 
	C266.557709,944.800171 265.009583,940.998047 259.708801,938.435852 
	C248.119629,932.834045 229.009781,941.807007 225.974640,954.275574 
	C224.728806,959.393555 227.017929,963.563660 232.006088,965.262695 
	C242.927689,968.982910 259.379333,962.302185 264.926575,951.250732 
M545.805542,786.656250 
	C541.568726,780.259583 535.237427,786.435852 530.128418,783.846252 
	C543.561157,800.413757 550.865234,819.419739 554.484192,841.213928 
	C556.768005,837.437500 557.891296,834.965149 559.566772,832.952515 
	C562.123596,829.881531 562.574097,826.718994 561.971863,822.821411 
	C559.914124,809.503723 554.530334,797.747314 545.805542,786.656250 
M722.854492,948.538391 
	C714.872742,944.164429 706.936218,944.189270 699.357666,949.294434 
	C693.960083,952.930420 693.217834,957.739502 697.150452,962.873535 
	C701.248291,968.223328 706.964600,971.167969 713.441772,972.674988 
	C718.894409,973.943604 724.348450,974.007385 729.504883,971.590454 
	C735.383850,968.834839 736.622986,964.090027 733.126526,958.798950 
	C730.542480,954.888611 727.613403,951.321045 722.854492,948.538391 
M292.409424,281.835175 
	C286.986816,285.403717 285.301605,292.859253 288.586792,298.747101 
	C289.273499,287.484863 290.790710,285.588501 301.848999,282.200531 
	C302.484039,282.005951 303.145508,281.899384 303.786621,281.722565 
	C331.469147,274.087891 359.689178,274.143921 387.984253,276.154144 
	C404.739227,277.344452 420.790314,281.512878 435.684113,289.552551 
	C437.987762,290.796082 440.248383,292.119293 442.528931,293.405670 
	C439.866180,287.641357 434.627106,285.809479 429.590118,283.939575 
	C398.453888,272.381012 366.272491,268.973022 333.365540,272.434265 
	C319.632355,273.878723 306.138000,276.816467 292.409424,281.835175 
M320.556152,923.039978 
	C321.892334,921.342468 323.404907,919.753418 324.528229,917.925171 
	C326.914307,914.041748 328.147705,909.953430 325.090881,905.808899 
	C322.108521,901.765259 318.013336,900.526428 313.160370,901.361023 
	C303.202576,903.073425 294.596252,912.166321 293.567383,922.093750 
	C292.948303,928.067078 296.067047,931.669128 302.046539,931.919434 
	C309.494507,932.231140 315.023285,928.433899 320.556152,923.039978 
M778.995300,949.466431 
	C776.915405,951.405212 775.067383,953.503723 773.851685,956.129944 
	C770.411621,963.561279 773.805542,968.948547 781.955872,968.434814 
	C790.574951,967.891418 798.557129,965.136963 805.622009,960.075684 
	C812.622559,955.060425 812.044434,949.078857 804.205505,945.303162 
	C795.177063,940.954468 787.088257,943.291931 778.995300,949.466431 
M414.949554,969.509399 
	C422.855713,976.750977 432.298889,978.219788 442.382843,976.337585 
	C446.574219,975.555298 450.561096,973.315002 451.285706,968.652710 
	C451.970184,964.248718 448.870178,961.148682 445.502228,958.918335 
	C437.543854,953.647888 428.693359,952.922546 419.646179,955.090515 
	C410.790527,957.212646 409.311371,961.524353 414.949554,969.509399 
M515.652222,926.119202 
	C508.442108,931.555908 502.785736,938.146790 500.684814,947.163025 
	C499.897858,950.540222 500.576691,953.844116 503.306366,956.275085 
	C506.217194,958.867310 509.407074,957.636536 512.132996,956.081055 
	C521.048523,950.993652 527.966797,943.955200 531.207397,934.017334 
	C532.416443,930.309692 533.549622,925.866760 529.847717,922.877441 
	C526.092407,919.844849 522.308411,922.282593 518.759766,924.105103 
	C517.877136,924.558472 517.067932,925.154846 515.652222,926.119202 
M570.667725,834.185547 
	C565.483765,835.115906 563.081177,838.903809 563.390137,843.463684 
	C564.220825,855.722046 569.345398,866.244080 578.947021,874.005859 
	C584.023499,878.109680 588.874207,875.971191 590.700439,869.706055 
	C593.791687,859.100891 584.071045,838.838501 573.861938,834.671936 
	C573.109863,834.365051 572.246765,834.329895 570.667725,834.185547 
M711.088806,809.388611 
	C715.663391,810.098328 719.830688,809.617554 722.273071,805.023804 
	C724.662659,800.529602 723.856323,795.791748 719.761780,791.826172 
	C714.156067,786.397034 707.284119,783.522583 699.498657,783.412598 
	C694.698730,783.344666 690.489685,785.417542 688.634216,790.027283 
	C686.900757,794.333862 689.481567,797.834961 692.528320,800.591553 
	C697.575378,805.158325 703.687317,807.742371 711.088806,809.388611 
M121.705666,585.603882 
	C115.939606,582.917297 112.345337,585.033142 111.466103,592.246887 
	C110.055862,603.817383 113.008675,614.288757 120.469170,623.354309 
	C122.195709,625.452271 124.236115,627.343811 127.256813,626.547180 
	C130.266663,625.753540 131.268234,623.092712 131.625107,620.438171 
	C133.337326,607.702271 130.774216,596.072510 121.705666,585.603882 
M113.134491,525.673523 
	C110.464172,534.198547 109.036102,542.828003 111.524521,551.642517 
	C113.033310,556.987061 117.507324,558.366821 121.349670,554.856018 
	C128.367065,548.444092 132.483322,526.874634 128.354660,518.149109 
	C125.836693,512.827637 121.047211,512.258362 117.424797,516.979797 
	C115.606766,519.349426 114.157326,521.989685 113.134491,525.673523 
M889.275269,706.774170 
	C889.519043,708.982544 889.880371,711.234741 892.360352,711.986755 
	C894.139771,712.526367 895.679749,711.583252 896.677856,710.141479 
	C903.290161,700.589233 906.413025,690.132690 904.396912,678.497375 
	C904.006836,676.246338 903.290161,673.688416 900.386658,673.409729 
	C897.797180,673.161194 896.626953,675.262512 895.594238,677.173340 
	C890.747375,686.141052 887.775085,695.541809 889.275269,706.774170 
M188.293976,965.044189 
	C190.311493,963.427795 191.224548,961.658264 189.864502,959.022217 
	C185.334442,950.242004 166.029785,944.901550 157.910919,950.281250 
	C155.247955,952.045715 154.435089,954.086243 156.686279,956.872559 
	C162.668671,964.277405 178.872604,968.829712 188.293976,965.044189 
M143.724030,673.722717 
	C147.630936,678.303772 151.592880,682.827454 157.501587,684.937622 
	C162.738297,686.807800 165.528763,684.770264 164.602325,679.352722 
	C162.554565,667.378052 156.185349,658.111328 145.970520,651.610168 
	C143.665985,650.143555 140.869293,648.569702 138.099869,650.829529 
	C135.484055,652.964172 136.029709,655.951660 136.609909,658.723450 
	C137.719849,664.026062 140.354935,668.666382 143.724030,673.722717 
M184.220139,701.852600 
	C181.660812,705.761536 184.040466,708.588684 186.577393,711.023865 
	C192.719711,716.919800 200.196701,720.514893 208.374603,722.630371 
	C211.122314,723.341187 214.014893,723.417480 216.801086,722.707153 
	C221.091049,721.613342 222.593689,718.093018 220.527557,714.277405 
	C216.419189,706.690308 195.091980,697.698425 186.898682,700.138062 
	C186.126175,700.368042 185.448669,700.917175 184.220139,701.852600 
M149.065048,455.562073 
	C145.906219,451.511475 143.180099,451.182587 138.482605,454.285400 
	C131.488434,458.905212 124.973091,474.846191 126.690399,483.137177 
	C127.850395,488.737488 131.832504,490.520996 137.168198,487.830017 
	C146.323456,483.212708 153.034592,465.914673 149.065048,455.562073 
M908.387207,567.144714 
	C906.531067,562.153809 904.738098,557.080627 900.654175,553.396729 
	C896.724854,549.852112 893.101501,550.948730 891.646606,555.920105 
	C889.148621,564.455750 895.640198,582.684326 903.042908,587.921387 
	C907.449768,591.039001 910.268799,589.860352 910.779785,584.536987 
	C911.325684,578.850525 910.767639,573.262024 908.387207,567.144714 
M893.540649,875.933533 
	C898.638550,864.827698 898.051758,855.558899 891.956482,850.911926 
	C886.940857,856.919678 878.908997,882.348267 880.414551,888.416504 
	C886.549805,886.364563 890.071777,881.713440 893.540649,875.933533 
M864.804016,916.109985 
	C864.895569,912.984009 865.658264,909.563538 861.948303,907.823059 
	C858.567383,906.236816 855.746399,908.018188 853.178711,909.861694 
	C845.487549,915.383789 841.265015,923.155396 839.397644,932.260559 
	C838.989258,934.251709 837.548096,936.856934 839.593445,938.350769 
	C841.721252,939.904846 844.455322,938.991150 846.731995,937.880188 
	C855.723938,933.492065 861.584229,926.368408 864.804016,916.109985 
M157.843338,426.380737 
	C163.988571,419.163483 165.467590,410.659790 164.498795,401.565948 
	C164.173248,398.510101 163.196579,395.519348 159.699387,394.657623 
	C156.118912,393.775421 154.067413,396.316742 152.354828,398.750519 
	C147.471771,405.689972 145.573380,413.498993 146.259949,421.939575 
	C146.494995,424.829193 147.005646,427.815918 149.784256,429.259155 
	C152.808395,430.829926 155.158173,428.802643 157.843338,426.380737 
M890.201965,528.383728 
	C895.237122,530.408752 897.396912,529.232300 897.855225,523.987610 
	C898.580200,515.693237 897.468750,507.717438 893.157837,500.419037 
	C891.370422,497.393005 889.441589,493.806519 885.385559,494.494293 
	C881.161926,495.210510 880.226379,499.343353 879.533142,502.937805 
	C879.134399,505.005066 879.172241,507.314331 879.652771,509.364838 
	C881.305664,516.418457 884.162720,522.907593 890.201965,528.383728 
M548.936646,885.282227 
	C548.344482,891.036743 546.418152,896.724060 547.613342,902.873718 
	C561.432861,894.228210 564.609497,870.504639 552.461731,863.775574 
	C551.307861,870.827881 550.196411,877.620850 548.936646,885.282227 
M903.376953,623.066772 
	C901.366821,632.181274 901.160706,641.238403 904.380432,650.148438 
	C905.131775,652.227783 906.233704,654.343933 908.772278,654.348022 
	C911.085754,654.351746 912.040649,652.330505 912.877258,650.471130 
	C916.826660,641.693420 917.713623,632.503296 916.111389,623.114380 
	C915.483704,619.435913 914.831787,614.731506 910.077881,614.520691 
	C905.533020,614.319214 904.863770,618.899902 903.376953,623.066772 
M269.484497,729.113159 
	C270.618347,728.868774 271.786072,728.726013 272.879852,728.361389 
	C276.536224,727.142700 280.830139,725.959045 280.420837,721.154480 
	C280.036743,716.645813 275.814209,715.035950 272.064148,714.605957 
	C264.516602,713.740601 256.857849,713.116638 249.492874,716.064148 
	C246.738983,717.166260 244.324692,718.581421 244.330750,721.979675 
	C244.336823,725.387756 246.790680,726.843384 249.534927,727.879944 
	C255.755829,730.229675 262.169312,730.251892 269.484497,729.113159 
M932.237061,455.579163 
	C935.042969,455.028961 936.830505,453.515472 936.565979,450.468872 
	C935.851685,442.239807 924.479126,433.177795 916.332642,434.470032 
	C913.247620,434.959412 909.615112,435.478363 908.603027,439.043701 
	C907.541870,442.781860 910.196655,445.300720 912.904602,447.365021 
	C918.430115,451.577057 924.844360,453.861420 932.237061,455.579163 
M888.817383,472.368561 
	C894.367432,466.008362 896.704041,458.625000 895.601257,450.260742 
	C894.804382,444.216614 891.147339,442.672180 886.220154,446.129913 
	C879.811768,450.627197 876.074463,461.273834 878.271362,468.773743 
	C879.937866,474.462982 882.719971,475.589996 888.817383,472.368561 
M145.085693,370.352081 
	C147.400757,373.662476 150.224487,376.427856 153.836227,378.293427 
	C158.959503,380.939850 162.109421,379.074097 162.427948,373.255463 
	C162.883209,364.938904 156.433319,355.593170 148.360748,352.872467 
	C143.200912,351.133453 139.673508,353.890350 140.356140,359.271210 
	C140.844788,363.122894 142.616547,366.516327 145.085693,370.352081 
M775.795471,798.417969 
	C776.424133,798.626404 777.044739,798.864746 777.683167,799.037048 
	C779.028259,799.399780 780.309387,801.023254 781.760986,799.666931 
	C783.289124,798.239197 782.219116,796.524536 781.714783,795.023376 
	C779.788452,789.289246 775.411987,786.278870 769.825073,784.823730 
	C767.331909,784.174377 764.387634,782.139832 762.271057,784.021484 
	C759.081909,786.856567 756.274841,790.197815 752.061584,793.311340 
	C760.571655,794.951904 768.021179,795.643982 775.795471,798.417969 
M899.103882,819.460205 
	C901.973938,811.333862 903.306213,803.016602 901.682983,794.461426 
	C900.912781,790.402405 899.526428,786.541260 894.391418,784.597412 
	C894.152100,798.404968 893.866943,811.649353 894.508057,825.414734 
	C897.684692,824.023071 897.740112,821.738281 899.103882,819.460205 
M415.794556,721.070374 
	C414.966461,721.978821 414.230011,723.004639 415.266449,724.124512 
	C418.828461,727.973267 418.259308,732.709534 418.245239,737.340149 
	C418.238007,739.726624 418.243958,742.113037 418.243958,744.499512 
	C418.708954,744.574951 419.173920,744.650391 419.638916,744.725830 
	C423.223663,731.536926 428.164215,718.901428 434.562927,706.769897 
	C427.735352,710.604736 421.587646,715.058228 415.794556,721.070374 
M412.850372,741.313416 
	C412.874176,738.498047 412.966339,735.680908 412.895874,732.867920 
	C412.854309,731.210449 412.712585,729.321533 410.811188,728.731384 
	C409.057465,728.187073 408.153198,729.799011 407.267334,730.922852 
	C403.979919,735.093323 400.656708,739.318665 398.585632,744.210083 
	C396.791748,748.446777 393.926727,752.432495 393.790710,757.852539 
	C398.923157,756.772583 402.252991,753.412598 406.418274,751.959778 
	C411.138489,750.313416 413.487793,747.317261 412.850372,741.313416 
M654.283325,738.390625 
	C653.065186,737.712219 652.273926,736.154297 650.481506,736.508484 
	C649.743530,738.961060 650.999939,740.645996 652.449829,742.315979 
	C658.077454,748.798096 661.433777,755.765198 657.647278,764.534424 
	C656.738892,766.638245 657.400757,769.219238 659.570496,770.122864 
	C661.950562,771.113953 663.566772,769.161987 664.544128,767.121582 
	C666.186035,763.693848 666.270264,760.052307 665.487549,756.407837 
	C663.965698,749.322144 659.905334,743.747253 654.283325,738.390625 
M727.681641,297.084595 
	C741.155029,296.975250 754.634277,296.576630 768.100037,296.846893 
	C779.125366,297.068176 790.304443,297.062988 801.615662,302.839294 
	C798.312317,298.213898 794.317810,297.091919 790.353882,296.478333 
	C765.533325,292.636261 740.697693,295.264496 715.856628,296.169098 
	C719.384766,298.882080 723.124695,296.651947 727.681641,297.084595 
M109.143112,884.113037 
	C108.551704,877.567200 107.960297,871.021362 107.283997,863.536011 
	C100.785538,870.904114 101.555611,878.883667 102.777962,886.633850 
	C103.621193,891.980225 105.677147,897.145447 111.667931,900.817749 
	C110.775543,894.766724 110.054138,889.875061 109.143112,884.113037 
M134.859146,933.477966 
	C132.031021,926.773926 130.112015,919.497681 123.408081,915.228394 
	C121.879211,914.254822 120.367668,912.910217 118.406281,914.084656 
	C116.371239,915.303223 116.302544,917.251892 116.655838,919.355225 
	C118.062447,927.728943 122.389244,934.114136 129.626755,938.524902 
	C131.503510,939.668701 133.641220,940.905762 135.592728,939.205322 
	C137.364426,937.661621 135.499954,935.851746 134.859146,933.477966 
M348.525482,845.163940 
	C346.719727,849.760254 345.113434,854.371460 347.053619,859.573242 
	C350.084503,858.715149 349.800690,856.586914 350.045807,854.665710 
	C350.697266,849.559753 352.392395,844.917664 356.755188,841.780334 
	C359.661743,839.690125 360.987915,840.444580 361.576050,844.264038 
	C355.951263,844.889587 353.449066,848.567200 355.162964,853.981140 
	C359.053741,851.177979 361.207428,846.904297 364.457123,843.622253 
	C367.611328,840.436768 366.535797,838.045654 362.090240,837.203613 
	C356.178406,836.083862 352.328979,838.203308 348.525482,845.163940 
M752.370544,809.189026 
	C762.033752,815.013916 774.950195,814.557495 779.267334,807.818665 
	C772.099243,804.182617 764.254883,804.647522 756.741699,803.459412 
	C761.541748,806.364563 767.728455,804.555969 772.347229,808.255798 
	C766.219910,808.919495 760.240540,808.541992 754.412170,806.750000 
	C753.597351,806.499390 752.657349,805.515747 752.440979,804.695801 
	C751.985291,802.968872 751.279419,801.656067 749.449341,802.636414 
	C747.190979,803.846497 748.598450,805.465881 749.570679,806.764404 
	C750.154175,807.543823 751.029236,808.104797 752.370544,809.189026 
M946.560791,478.180878 
	C950.354370,475.506866 948.807739,473.082367 945.959229,471.172089 
	C941.480225,468.168243 936.382080,467.691010 931.147461,468.381714 
	C928.663696,468.709442 927.799500,470.370911 928.134705,472.658081 
	C928.649170,476.167999 930.214294,478.878845 933.904663,479.991425 
	C938.146240,481.270203 942.087036,480.512695 946.560791,478.180878 
M807.964905,818.589539 
	C806.488953,822.205688 807.786194,825.510132 809.427734,828.588135 
	C811.586243,832.635742 814.336670,832.492615 817.108582,828.202454 
	C814.214539,826.822571 811.396667,825.116577 811.911377,821.350891 
	C812.398010,817.790222 814.681335,815.391174 817.928284,813.982178 
	C819.132812,813.459412 820.449768,813.182800 821.730164,812.850769 
	C823.813110,812.310547 824.870972,811.184143 824.003296,808.263794 
	C817.755310,810.027588 811.589478,811.463989 807.964905,818.589539 
M115.415260,370.887085 
	C116.422775,370.579651 117.280365,370.011993 117.546043,368.975403 
	C119.224518,362.426422 123.629051,358.980988 130.062485,357.669922 
	C133.189819,357.032593 132.947235,354.829102 132.445816,352.192780 
	C121.726318,354.830292 114.611916,360.946564 110.472237,370.659454 
	C112.174271,372.013062 113.453796,371.204956 115.415260,370.887085 
M668.097595,392.594360 
	C654.498413,403.651001 637.936157,408.025543 621.620544,412.995575 
	C630.666199,412.222809 639.347961,410.135498 647.856018,407.197021 
	C655.953674,404.400299 662.714172,399.806396 668.097595,392.594360 
M492.630096,315.344971 
	C478.130585,312.410034 463.772827,311.820496 449.787048,317.623932 
	C464.708069,313.832886 479.705261,313.957336 494.801300,317.904236 
	C494.824249,317.477631 494.847168,317.051056 494.870087,316.624451 
	C494.342804,316.267944 493.815552,315.911469 492.630096,315.344971 
M349.810455,875.398193 
	C351.150391,870.999207 352.490326,866.600281 354.088593,861.353271 
	C345.190826,868.929932 342.520752,878.596863 347.963104,882.911377 
	C348.554962,880.550659 349.103119,878.364258 349.810455,875.398193 
M820.483704,821.864502 
	C821.212585,819.935181 823.010010,818.294983 822.106628,815.647766 
	C818.545410,815.402832 816.676208,817.427002 815.528259,820.377808 
	C814.992920,821.754089 815.411499,823.055359 816.638489,823.910950 
	C818.489746,825.201721 819.305542,823.776794 820.483704,821.864502 
M316.007111,370.301086 
	C313.958557,363.843170 311.910034,357.385254 309.861481,350.927338 
	C311.237671,359.401428 312.493195,367.905609 317.440491,375.232086 
	C317.057220,373.812347 316.673950,372.392639 316.007111,370.301086 
M899.663452,443.476685 
	C901.115112,445.623260 902.330383,445.369202 902.712524,442.913666 
	C903.018921,440.944214 902.774414,438.889038 902.774414,436.760010 
	C900.406738,437.112427 898.486694,437.388855 897.431458,439.657593 
	C898.047180,440.707001 898.695984,441.812866 899.663452,443.476685 
M377.688293,829.607971 
	C376.630066,827.431091 375.571869,825.254211 374.513641,823.077332 
	C374.053345,826.580261 372.397095,829.885925 373.976501,833.188782 
	C376.218597,833.167053 377.300629,832.142273 377.688293,829.607971 
M652.838684,749.565430 
	C653.804443,752.876892 654.770264,756.188293 655.736023,759.499756 
	C656.381348,755.447876 655.398926,751.784119 653.692871,748.427368 
	C652.662292,746.399597 652.512817,747.837158 652.838684,749.565430 
z"/>
<path fill="#ffffff" opacity="1.000000" stroke="none"
	d="
M528.724976,755.531677 
	C529.661377,758.393982 530.579773,761.043518 531.263611,763.752258 
	C531.626892,765.191284 531.679565,766.815674 530.065308,767.700989 
	C528.519653,768.548767 527.059875,767.860779 525.978088,766.835144 
	C520.262390,761.416565 517.014404,754.587646 515.664062,746.969055 
	C515.169067,744.176453 517.184692,743.647766 519.515991,745.036621 
	C522.406860,746.758911 524.566589,749.248169 526.952026,752.039429 
	C527.703735,753.289978 528.156555,754.316772 528.724976,755.531677 
M521.931702,751.069458 
	C521.440674,750.518372 521.147705,749.561890 519.799255,750.302490 
	C520.931763,755.835388 523.024902,760.739502 528.122009,763.841858 
	C527.230469,759.201721 525.305359,755.121155 521.931702,751.069458 
z"/>
<path fill="#ffffff" opacity="1.000000" stroke="none"
	d="
M271.110535,590.063782 
	C301.563019,574.122070 324.135559,550.646545 340.864502,521.358521 
	C345.564148,513.130676 348.983673,504.196198 353.959991,496.092468 
	C355.265686,493.966156 356.107025,491.201721 359.064148,490.802795 
	C360.064575,491.644226 360.055786,492.452606 359.822937,493.285858 
	C351.008667,524.828003 334.156738,551.131897 309.122528,572.360596 
	C290.336700,588.290771 269.645569,601.270386 248.182404,613.105347 
	C234.302917,620.758484 219.412628,623.193604 203.733749,620.343140 
	C182.915237,616.558289 167.882599,597.301025 163.186569,580.236755 
	C163.076706,579.837585 163.373169,579.326599 163.484970,578.846741 
	C165.726044,578.565674 165.835617,580.382385 166.429077,581.608032 
	C168.460251,585.802979 170.597443,589.906921 173.153580,593.842346 
	C180.802505,605.618530 192.441818,609.445251 205.494476,610.766785 
	C217.778580,612.010498 229.286362,609.006531 240.525955,604.497864 
	C250.892029,600.339539 261.023926,595.677185 271.110535,590.063782 
z"/>
<path fill="#ffffff" opacity="1.000000" stroke="none" 
	d="
M108.410278,383.530579 
	C109.911804,382.118378 111.294762,380.863983 113.040619,381.924805 
	C114.746101,382.961060 114.308342,384.875580 114.112564,386.490326 
	C113.805740,389.021088 112.695152,391.259949 111.140892,393.266296 
	C110.178108,394.509155 109.010666,395.535095 107.323212,394.819336 
	C105.528008,394.057770 105.075073,392.442719 105.327110,390.668640 
	C105.684296,388.154510 106.724747,385.890686 108.410278,383.530579 
z"/>
<path fill="#ffffff" opacity="1.000000" stroke="none" 
	d="
M673.903076,237.096832 
	C676.881836,240.500946 680.327271,243.211670 681.298096,248.054520 
	C677.974304,248.325195 676.503540,246.231750 674.754272,244.947571 
	C665.336182,238.033340 655.745178,231.391052 644.707703,227.298431 
	C620.822144,218.441849 597.873291,221.813904 575.797119,233.316040 
	C562.612610,240.185455 550.651001,248.943924 539.266724,258.488800 
	C537.971313,259.574890 537.009644,261.564636 534.774475,260.612335 
	C533.767761,259.309418 534.549316,258.342285 535.223022,257.408081 
	C551.117798,235.366196 572.192322,220.233063 598.469055,213.916016 
	C625.371643,207.448502 649.572693,214.324753 669.908020,233.542023 
	C671.117188,234.684708 672.402954,235.746307 673.903076,237.096832 
z"/>
<path fill="#ffffff" opacity="1.000000" stroke="none"
	d="
M485.283997,889.405029 
	C473.635895,907.667358 454.756561,914.773499 435.076263,908.555237 
	C421.848755,904.375854 409.503632,892.361877 409.975830,882.660461 
	C418.913452,897.420471 430.554657,905.847717 447.518646,905.958618 
	C464.135437,906.067200 476.549347,899.179016 484.867981,884.834229 
	C487.032562,886.842224 485.815399,887.947815 485.283997,889.405029 
z"/>
<path fill="#ffffff" opacity="1.000000" stroke="none"
	d="
M632.288757,316.830505 
	C639.122131,338.618408 638.099304,359.378326 625.490845,378.367615 
	C616.819397,391.427338 600.167175,390.343719 593.120911,376.332764 
	C581.463196,353.152466 582.643066,329.505432 594.205322,306.792419 
	C601.557251,292.350403 616.657593,291.968201 626.495544,304.861450 
	C629.156311,308.348541 630.818542,312.327576 632.288757,316.830505 
M598.163879,310.682800 
	C589.892944,325.750122 589.647095,341.877045 592.252991,358.243835 
	C593.081665,363.448822 594.322388,368.708832 597.069214,373.387573 
	C604.231323,385.586670 615.736267,386.142181 622.774353,373.863281 
	C634.709045,353.041809 633.980042,331.310699 623.491943,310.356720 
	C616.865295,297.117310 606.580078,297.501251 598.163879,310.682800 
z"/>
<path fill="#ffffff" opacity="1.000000" stroke="none"
	d="
M640.023560,927.932556 
	C642.549561,930.094055 644.929688,931.908997 646.972961,934.046082 
	C648.340698,935.476685 649.395569,937.447876 647.946838,939.433594 
	C646.726074,941.106628 644.884644,941.132019 642.994202,940.559753 
	C635.210022,938.203369 629.291016,933.460449 625.039246,926.578979 
	C624.205750,925.229980 623.801697,923.769043 624.960144,922.441162 
	C626.056519,921.184387 627.559692,921.169067 629.091492,921.527405 
	C633.273743,922.505615 636.302307,925.459717 640.023560,927.932556 
M642.685730,934.348328 
	C638.765930,930.691284 634.808105,927.093811 628.230408,925.127380 
	C631.838745,931.118103 636.076843,934.362915 641.480408,936.192261 
	C642.464966,936.525574 643.569824,936.490356 642.685730,934.348328 
z"/>
<path fill="#ffffff" opacity="1.000000" stroke="none" 
	d="
M252.860504,957.072754 
	C248.994598,958.698425 245.465698,960.105347 241.642853,960.645081 
	C239.354477,960.968079 237.158310,960.923828 236.136368,958.521729 
	C235.199829,956.320374 236.621109,954.593262 238.244873,953.407898 
	C243.151505,949.825989 248.752945,947.827698 254.716614,946.892212 
	C256.622833,946.593262 258.409271,947.174561 259.273926,949.128357 
	C260.151733,951.111938 259.254669,952.754883 257.764282,953.964355 
	C256.365356,955.099487 254.739410,955.954895 252.860504,957.072754 
M241.253372,956.776733 
	C246.625885,957.048889 250.870834,954.686523 254.634354,951.173157 
	C249.929840,952.316895 244.955917,952.724426 241.253372,956.776733 
z"/>
<path fill="#ffffff" opacity="1.000000" stroke="none" 
	d="
M723.135254,968.397888 
	C716.583374,969.068298 710.841064,967.970337 705.856873,964.112854 
	C704.402039,962.987000 703.044067,961.526978 703.605835,959.466064 
	C704.229309,957.178528 706.345703,956.413269 708.306824,956.477600 
	C714.517212,956.681030 720.516846,958.193176 725.739807,961.568787 
	C729.335022,963.892334 728.501038,966.075623 723.135254,968.397888 
M716.237366,961.219482 
	C713.784180,960.869324 711.321350,959.316772 708.099548,961.399109 
	C712.813354,965.151978 717.553589,965.147827 723.094666,964.801147 
	C721.231628,962.094177 718.877136,962.205383 716.237366,961.219482 
z"/>
<path fill="#ffffff" opacity="1.000000" stroke="none" 
	d="
M300.839386,924.414307 
	C304.221497,917.723816 309.740082,913.735474 315.592621,910.150879 
	C316.969391,909.307617 318.715149,908.528870 320.246307,909.886108 
	C321.888916,911.342163 321.584045,913.310730 320.735291,914.955627 
	C317.462830,921.297607 312.277405,925.608154 305.621246,927.966370 
	C303.175110,928.832947 300.901947,928.131348 300.839386,924.414307 
M315.405914,918.004456 
	C316.284637,916.893494 317.837097,916.134338 317.214172,913.650085 
	C311.941559,915.523315 308.920227,919.679993 305.700500,923.667053 
	C309.525696,923.199646 312.148560,920.719971 315.405914,918.004456 
z"/>
<path fill="#ffffff" opacity="1.000000" stroke="none" 
	d="
M800.911743,951.831421 
	C803.406555,954.154419 802.202515,955.870239 800.514526,957.518066 
	C796.252136,961.678894 790.816833,963.160522 785.183350,964.056702 
	C783.494934,964.325378 781.758118,963.820251 781.103943,961.935852 
	C780.522949,960.261902 781.533691,958.981201 782.770569,958.093567 
	C788.097229,954.271545 793.661438,951.023254 800.911743,951.831421 
M786.184570,959.573059 
	C791.110168,961.028137 794.317688,957.690857 797.879395,955.325439 
	C793.834961,955.800659 790.060852,957.069092 786.184570,959.573059 
z"/>
<path fill="#ffffff" opacity="1.000000" stroke="none" 
	d="
M427.954987,961.194275 
	C432.154999,961.659424 435.891968,962.379211 439.407654,963.888916 
	C441.221588,964.667847 443.266357,965.643555 443.029327,968.052490 
	C442.783752,970.548401 440.707306,971.700012 438.543518,972.040527 
	C434.449829,972.684570 430.298340,972.845886 426.338776,971.206909 
	C423.360199,969.973999 420.024872,968.342590 420.366791,964.771118 
	C420.747253,960.797302 424.771851,961.701660 427.954987,961.194275 
M434.380646,965.953186 
	C427.392181,964.396667 427.392181,964.396667 424.616119,966.538269 
	C429.232025,968.785767 433.615295,969.794128 438.485138,968.014832 
	C437.826324,966.046631 436.276306,966.438416 434.380646,965.953186 
z"/>
<path fill="#ffffff" opacity="1.000000" stroke="none" 
	d="
M523.621826,942.501099 
	C520.678467,946.486633 517.272095,949.340088 513.037109,951.140930 
	C511.792145,951.670410 510.444275,952.011047 509.265839,950.990479 
	C507.960846,949.860474 507.873596,948.431335 508.489563,946.898071 
	C511.122345,940.344299 515.558167,935.322754 521.590576,931.732605 
	C522.859436,930.977356 524.401611,930.528320 525.834045,931.577393 
	C527.418945,932.738159 527.440125,934.447632 527.112366,936.104309 
	C526.650146,938.440857 525.249695,940.341858 523.621826,942.501099 
M513.197937,944.306091 
	C512.770569,945.252380 511.480774,946.013245 512.713989,947.550232 
	C518.395569,945.346313 521.381409,940.844666 523.503235,935.520752 
	C518.778137,936.710449 516.331970,940.433228 513.197937,944.306091 
z"/>
<path fill="#ffffff" opacity="1.000000" stroke="none" 
	d="
M586.801514,863.277588 
	C587.082947,866.333313 586.652466,868.866699 583.803955,869.766296 
	C581.307068,870.554871 579.283997,869.012268 577.732666,867.227966 
	C572.854309,861.616821 569.636963,855.142761 568.210144,847.828674 
	C567.736084,845.398682 568.190613,843.001770 570.348450,841.636597 
	C572.543579,840.247742 574.611206,841.813416 576.223145,843.093872 
	C582.565063,848.131592 584.794128,855.449036 586.801514,863.277588 
M578.126526,849.408508 
	C577.758789,848.858154 577.448181,848.257080 577.012329,847.767334 
	C575.828918,846.437195 574.668396,844.484924 572.571167,845.753906 
	C570.744263,846.859314 571.828918,848.774170 572.197388,850.300232 
	C573.293457,854.839905 574.904907,859.176453 577.993408,862.790283 
	C579.229553,864.236633 580.274170,866.200989 583.258911,865.219177 
	C583.394409,859.655273 581.304565,854.741577 578.126526,849.408508 
z"/>
<path fill="#ffffff" opacity="1.000000" stroke="none" 
	d="
M700.188843,799.907471 
	C698.701050,798.792297 697.410950,797.982910 696.364929,796.930786 
	C694.765320,795.322021 692.421326,793.656799 693.953918,791.043213 
	C695.282776,788.777100 697.827087,789.468628 699.871521,790.025635 
	C706.176270,791.743408 712.244934,793.998779 716.855652,798.962646 
	C717.873047,800.057983 719.055115,801.205505 718.410706,802.881470 
	C717.720337,804.676697 716.064636,805.129517 714.335938,805.205261 
	C709.018921,805.438354 704.908508,802.352234 700.188843,799.907471 
M698.361267,792.810303 
	C698.187317,793.209839 697.748901,793.765686 697.878845,793.985596 
	C699.922852,797.444702 709.479980,801.544128 714.362671,800.736633 
	C709.824768,796.266296 704.515808,794.296448 698.361267,792.810303 
z"/>
<path fill="#ffffff" opacity="1.000000" stroke="none" 
	d="
M114.717674,595.042969 
	C117.725891,590.149902 119.633255,589.993652 122.041649,594.563477 
	C125.247253,600.645996 126.981880,607.235046 127.203323,614.145020 
	C127.275002,616.381775 126.784027,618.656799 124.397018,619.505554 
	C121.650108,620.482422 120.447586,618.094727 119.453888,616.339172 
	C115.795441,609.875854 113.602280,603.000793 114.717674,595.042969 
M119.348396,595.744995 
	C118.659851,595.086853 117.844742,594.752075 117.416656,595.856750 
	C115.842590,599.918762 119.740677,612.057068 123.693069,614.803772 
	C123.959618,608.112793 121.942986,602.191223 119.348396,595.744995 
z"/>
<path fill="#ffffff" opacity="1.000000" stroke="none" 
	d="
M121.166061,546.816284 
	C120.004074,548.646423 119.212685,550.667419 116.928215,550.119873 
	C114.884911,549.630188 114.175331,547.681519 113.952461,545.871765 
	C113.149910,539.354797 113.314972,532.887573 116.087448,526.771729 
	C117.192139,524.334900 118.549332,521.458374 121.735611,522.074402 
	C124.947571,522.695435 125.174088,525.864624 125.104660,528.541443 
	C124.944046,534.734375 123.861145,540.772949 121.166061,546.816284 
M118.739090,528.543945 
	C116.642792,533.920898 116.766144,539.343750 118.079498,544.817444 
	C121.565765,538.590088 122.448288,532.086426 121.544342,525.126587 
	C119.529556,525.562805 119.453629,526.846191 118.739090,528.543945 
z"/>
<path fill="#ffffff" opacity="1.000000" stroke="none" 
	d="
M896.037109,704.818481 
	C893.264954,704.761353 892.045898,702.781738 893.824829,701.451233 
	C897.651733,698.589111 899.039978,695.950317 896.343079,691.423279 
	C895.696594,690.338196 896.347717,687.222656 899.035156,685.338684 
	C901.494324,692.644226 898.962524,698.604736 896.037109,704.818481 
z"/>
<path fill="#ffffff" opacity="1.000000" stroke="none" 
	d="
M167.972885,959.145203 
	C166.366684,958.035400 164.324066,957.361328 164.903580,955.341187 
	C165.499619,953.263245 167.684692,952.939636 169.466461,953.108337 
	C174.823685,953.615723 179.874573,955.204529 184.262939,958.443115 
	C185.364990,959.256470 186.294006,960.493835 184.900253,961.766235 
	C183.656464,962.901794 181.850204,963.184509 181.076904,961.492920 
	C178.718307,956.333618 173.903488,958.362122 170.177292,956.549927 
	C169.958038,959.327087 172.910858,958.542419 172.769318,960.525818 
	C170.909485,961.456604 169.698914,959.961731 167.972885,959.145203 
z"/>
<path fill="#ffffff" opacity="1.000000" stroke="none" 
	d="
M159.092392,681.695435 
	C156.220490,683.094910 154.251831,681.456116 152.499176,680.088562 
	C148.126511,676.676758 144.639038,672.431335 142.073593,667.490356 
	C140.946030,665.318787 140.305573,663.000977 142.520279,661.112122 
	C144.887100,659.093445 147.002609,660.477478 148.667847,662.187500 
	C153.959442,667.621521 159.594330,672.924683 159.092392,681.695435 
M149.395905,673.072998 
	C150.984802,674.733459 152.197327,676.935364 155.627686,677.528015 
	C153.236908,671.372437 150.064606,667.021545 144.017517,663.282654 
	C145.159927,667.667114 147.076630,670.084412 149.395905,673.072998 
z"/>
<path fill="#ffffff" opacity="1.000000" stroke="none" 
	d="
M214.418228,716.962646 
	C213.712402,718.855103 212.388596,719.468933 210.862274,719.730652 
	C206.327744,720.507996 193.860382,714.563416 191.709442,710.610413 
	C190.454300,708.303650 190.476517,706.474060 193.543961,705.790955 
	C199.105194,704.552368 211.854996,711.143250 214.418228,716.962646 
M203.912064,714.503296 
	C205.472443,715.014954 206.958282,716.255310 209.533661,714.908264 
	C205.170135,711.909790 201.205139,709.868225 196.087372,710.372009 
	C198.478912,711.646057 200.870438,712.920105 203.912064,714.503296 
z"/>
<path fill="#ffffff" opacity="1.000000" stroke="none" 
	d="
M142.713623,474.506592 
	C141.407745,477.645569 139.837601,480.144135 137.595734,482.203552 
	C136.467606,483.239868 135.305878,484.280792 133.660889,483.718750 
	C131.942780,483.131683 130.899277,481.754517 130.855606,479.970795 
	C130.641144,471.214020 134.179108,463.835052 139.967957,457.612549 
	C142.434387,454.961334 145.388046,456.573090 145.937698,460.766754 
	C146.563934,465.544617 144.452927,469.819427 142.713623,474.506592 
M139.373611,474.734406 
	C141.221741,470.089874 143.691193,465.553864 142.446014,459.872223 
	C137.218826,463.708252 133.431854,474.805054 135.301956,480.016083 
	C137.063812,478.820496 137.944748,477.017914 139.373611,474.734406 
z"/>
<path fill="#ffffff" opacity="1.000000" stroke="none" 
	d="
M898.862183,571.868286 
	C898.155273,568.582520 897.513977,565.680969 897.045288,562.751831 
	C896.829956,561.406555 897.144409,559.987427 898.515686,559.346924 
	C899.942871,558.680359 901.183289,559.543213 901.972900,560.591919 
	C906.079224,566.045654 907.779663,572.357910 908.148376,579.064880 
	C908.221558,580.394775 907.656250,581.804810 906.285522,582.308838 
	C904.499146,582.965576 903.432251,581.575317 902.757080,580.304749 
	C901.367432,577.689575 900.236084,574.937195 898.862183,571.868286 
M900.431885,566.091736 
	C901.671814,569.751282 902.911682,573.410889 904.151611,577.070496 
	C904.539124,576.906982 904.926697,576.743530 905.314209,576.580078 
	C904.583069,572.521484 903.391785,568.584595 901.320740,565.004578 
	C900.160522,562.999146 900.070068,564.194214 900.431885,566.091736 
z"/>
<path fill="#ffffff" opacity="1.000000" stroke="none" 
	d="
M844.194153,929.157227 
	C845.665161,923.667480 848.265259,919.319397 852.688110,916.291565 
	C854.322754,915.172485 856.316895,914.284485 858.147583,916.016296 
	C859.717590,917.501587 859.319153,919.335083 858.581787,921.084534 
	C856.493835,926.038269 852.692383,929.452820 848.201477,932.090515 
	C845.618408,933.607727 844.105347,932.571411 844.194153,929.157227 
M847.911011,926.717407 
	C847.658447,927.298645 847.214844,927.863647 847.757996,928.512695 
	C853.060303,925.345825 855.364319,922.478088 855.633057,918.470093 
	C851.820557,919.896851 850.236572,923.270081 847.911011,926.717407 
z"/>
<path fill="#ffffff" opacity="1.000000" stroke="none" 
	d="
M155.834808,422.614716 
	C153.453766,425.559082 151.794891,425.047546 150.504074,422.098083 
	C148.708710,417.995789 151.289505,405.863556 154.639191,402.746643 
	C157.274414,400.294617 158.555267,401.913666 159.053192,404.455139 
	C160.285751,410.746185 158.930801,416.671783 155.834808,422.614716 
M156.611053,411.997223 
	C156.538101,410.050903 157.538666,407.937805 155.719315,405.627289 
	C153.046646,410.428040 152.746414,415.008026 153.991730,419.995911 
	C154.812714,417.587585 155.633698,415.179230 156.611053,411.997223 
z"/>
<path fill="#ffffff" opacity="1.000000" stroke="none" 
	d="
M893.512695,508.787720 
	C894.666565,512.666748 895.771912,516.155029 895.196533,519.878967 
	C894.984680,521.250000 894.452515,522.483154 892.958130,522.843567 
	C891.615417,523.167297 890.738892,522.252686 890.102478,521.287903 
	C886.221985,515.405029 885.526306,508.638763 884.954468,501.879883 
	C884.839600,500.522736 885.728088,499.372101 887.615112,499.062805 
	C890.284241,501.587799 892.259583,504.717987 893.512695,508.787720 
M892.587158,517.045593 
	C892.088074,512.638672 890.803955,508.472687 888.798706,504.521118 
	C889.595398,508.932495 889.208679,513.656799 892.587158,517.045593 
z"/>
<path fill="#ffffff" opacity="1.000000" stroke="none" 
	d="
M906.845947,639.603760 
	C906.514343,634.323975 907.384521,629.579041 908.062500,624.835510 
	C908.308960,623.110962 908.767212,620.934204 910.958130,620.653076 
	C913.337402,620.347778 914.052490,622.620728 914.408264,624.223816 
	C915.902710,630.956604 915.897339,637.691528 913.216492,644.198975 
	C912.717773,645.409729 911.930969,646.540527 910.233948,646.716248 
	C907.714355,645.276001 907.211914,642.702087 906.845947,639.603760 
M911.954651,638.894287 
	C912.716125,634.308167 913.770874,629.728516 912.188843,625.067627 
	C909.305725,630.274719 910.565491,635.779785 911.259338,641.300354 
	C911.450012,640.723755 911.640686,640.147156 911.954651,638.894287 
z"/>
<path fill="#ffffff" opacity="1.000000" stroke="none" 
	d="
M267.161774,727.659058 
	C262.271118,728.447266 257.796967,728.879089 253.552399,726.745178 
	C252.067612,725.998718 250.450104,725.178955 250.711365,723.105835 
	C250.933899,721.340210 252.431961,720.685425 253.872208,720.289368 
	C259.057220,718.863831 264.358154,718.360291 269.688477,719.103577 
	C271.826813,719.401733 274.398071,720.215027 274.665314,722.616638 
	C274.988922,725.524353 272.174469,726.145203 269.993652,726.923401 
	C269.213776,727.201660 268.380951,727.331543 267.161774,727.659058 
M262.721100,722.211792 
	C260.763306,722.426636 258.566193,722.042053 256.751251,724.517944 
	C261.245941,724.708008 265.114258,725.587708 268.669220,722.193359 
	C266.956421,722.193359 265.243591,722.193359 262.721100,722.211792 
z"/>
<path fill="#ffffff" opacity="1.000000" stroke="none" 
	d="
M928.041626,448.948425 
	C923.938599,447.605743 920.006592,446.829132 916.640015,444.661102 
	C915.232300,443.754608 913.795227,442.413330 914.438782,440.635345 
	C915.131287,438.722046 917.050659,439.140930 918.726074,439.322968 
	C922.981262,439.785278 926.684692,441.441986 929.602295,444.544312 
	C931.345398,446.397766 932.023743,448.354309 928.041626,448.948425 
z"/>
<path fill="#ffffff" opacity="1.000000" stroke="none" 
	d="
M882.983398,468.455933 
	C880.290771,461.311768 883.853455,455.997986 887.254211,450.666901 
	C887.805664,449.802521 888.725037,449.318970 889.839600,449.657501 
	C890.954346,449.996094 891.497620,450.906738 891.410034,451.932251 
	C890.928345,457.576324 889.965027,463.121002 886.948792,468.051697 
	C886.076050,469.478485 884.758057,470.108490 882.983398,468.455933 
z"/>
<path fill="#ffffff" opacity="1.000000" stroke="none" 
	d="
M151.557831,371.748108 
	C147.915909,368.587128 145.875687,364.851440 144.583298,360.665710 
	C144.183090,359.369476 143.888580,358.007843 145.356125,357.144257 
	C146.522430,356.457886 147.595779,357.005493 148.590622,357.653168 
	C153.115601,360.599030 155.700607,364.939178 157.355423,369.933075 
	C157.680801,370.914978 157.794556,372.035339 156.884125,372.677490 
	C155.071686,373.955688 153.434982,372.955322 151.557831,371.748108 
M150.201859,362.258850 
	C149.906525,362.138306 149.617645,361.990662 149.310989,361.917694 
	C149.240768,361.901001 148.999786,362.168060 149.021957,362.260101 
	C149.700699,365.079132 150.990555,367.445404 154.159607,368.441528 
	C152.976044,366.505157 151.792480,364.568787 150.201859,362.258850 
z"/>
<path fill="#ffffff" opacity="1.000000" stroke="none" 
	d="
M399.522064,751.845459 
	C397.782471,746.213623 401.122681,742.432861 403.676392,738.466125 
	C404.752869,736.794006 406.543884,737.142639 407.246338,738.762024 
	C408.711456,742.139404 406.881042,745.243713 405.521454,748.159424 
	C404.485931,750.380188 403.432648,753.348816 399.522064,751.845459 
z"/>
<path fill="#ffffff" opacity="1.000000" stroke="none" 
	d="
M123.898849,931.068298 
	C122.013710,927.870728 118.315392,923.911621 121.602325,921.759216 
	C125.299477,919.338074 127.448410,924.597656 129.417999,927.273682 
	C130.916367,929.309631 133.446533,932.506592 130.481155,934.616943 
	C127.784676,936.536011 125.995003,933.065430 123.898849,931.068298 
z"/>
<path fill="#ffffff" opacity="1.000000" stroke="none" 
	d="
M931.617554,472.605865 
	C936.283875,470.109009 939.544800,472.592010 943.276489,474.657379 
	C938.447083,478.733032 932.911194,477.689972 931.617554,472.605865 
z"/>
</svg>